<?xml version="1.0" encoding="UTF-8" standalone="no"?><svg xmlns="http://www.w3.org/2000/svg" xmlns:xlink="http://www.w3.org/1999/xlink" contentStyleType="text/css" height="318px" preserveAspectRatio="none" style="width:807px;height:318px;background:#FFFFFF;" version="1.1" viewBox="0 0 807 318" width="807px" zoomAndPan="magnify"><defs/><g><!--MD5=[c09f5ef791110389cd3fbb684c42cc6c]
entity ##10--><!--MD5=[b4ca6c66a43296c0049d1e13d6d6becb]
class Mapping--><g id="elem_Mapping"><rect codeLine="51" fill="#F1F1F1" height="103.8633" id="Mapping" rx="2.5" ry="2.5" style="stroke:#181818;stroke-width:0.5;" width="94" x="525" y="25.5"/><ellipse cx="543.6" cy="41.5" fill="#ADD1B2" rx="11" ry="11" style="stroke:#181818;stroke-width:1.0;"/><path d="M547.1156,42.8594 Q546.8969,46.2344 545.7563,47.3594 Q544.7563,48.3594 543.3813,48.3594 Q542.0063,48.3594 541.0063,47.3594 Q539.2719,45.625 539.2719,41.9844 Q539.2719,37.7656 541.1313,35.8906 Q542.1469,34.8906 543.4438,34.8906 Q544.8188,34.8906 545.6313,35.6875 Q547.1,37.1719 547.0375,39.9375 L545.0375,39.9375 Q544.975,37.6563 544.3188,37 Q544.0063,36.6719 543.4438,36.6719 Q542.9594,36.6719 542.5688,37.0625 Q541.3188,38.3125 541.3188,41.8594 Q541.3188,44.9375 542.3813,45.9844 Q542.8344,46.4375 543.3813,46.4375 Q543.8656,46.4375 544.3188,45.9844 Q544.9125,45.4063 544.975,42.8594 L547.1156,42.8594 Z " fill="#000000"/><text fill="#000000" font-family="sans-serif" font-size="14" lengthAdjust="spacing" textLength="54" x="558.4" y="47.2969">Mapping</text><line style="stroke:#181818;stroke-width:0.5;" x1="526" x2="618" y1="57.5" y2="57.5"/><text fill="#000000" font-family="sans-serif" font-size="14" lengthAdjust="spacing" textLength="42" x="531" y="76.6074">long Id</text><text fill="#000000" font-family="sans-serif" font-size="14" lengthAdjust="spacing" textLength="82" x="531" y="95.2285">string CodeA</text><text fill="#000000" font-family="sans-serif" font-size="14" lengthAdjust="spacing" textLength="82" x="531" y="113.8496">string CodeB</text><line style="stroke:#181818;stroke-width:0.5;" x1="526" x2="618" y1="121.3633" y2="121.3633"/></g><!--MD5=[ed370e35d390fd48b1189bb9b975f19f]
class DataCategory--><g id="elem_DataCategory"><rect codeLine="6" fill="#F1F1F1" height="103.8633" id="DataCategory" rx="2.5" ry="2.5" style="stroke:#181818;stroke-width:0.5;" width="120" x="7" y="25.5"/><ellipse cx="22" cy="41.5" fill="#ADD1B2" rx="11" ry="11" style="stroke:#181818;stroke-width:1.0;"/><path d="M25.5156,42.8594 Q25.2969,46.2344 24.1563,47.3594 Q23.1563,48.3594 21.7813,48.3594 Q20.4063,48.3594 19.4063,47.3594 Q17.6719,45.625 17.6719,41.9844 Q17.6719,37.7656 19.5313,35.8906 Q20.5469,34.8906 21.8438,34.8906 Q23.2188,34.8906 24.0313,35.6875 Q25.5,37.1719 25.4375,39.9375 L23.4375,39.9375 Q23.375,37.6563 22.7188,37 Q22.4063,36.6719 21.8438,36.6719 Q21.3594,36.6719 20.9688,37.0625 Q19.7188,38.3125 19.7188,41.8594 Q19.7188,44.9375 20.7813,45.9844 Q21.2344,46.4375 21.7813,46.4375 Q22.2656,46.4375 22.7188,45.9844 Q23.3125,45.4063 23.375,42.8594 L25.5156,42.8594 Z " fill="#000000"/><text fill="#000000" font-family="sans-serif" font-size="14" lengthAdjust="spacing" textLength="88" x="36" y="47.2969">DataCategory</text><line style="stroke:#181818;stroke-width:0.5;" x1="8" x2="126" y1="57.5" y2="57.5"/><text fill="#000000" font-family="sans-serif" font-size="14" lengthAdjust="spacing" textLength="42" x="13" y="76.6074">long Id</text><text fill="#000000" font-family="sans-serif" font-size="14" lengthAdjust="spacing" textLength="73" x="13" y="95.2285">string Code</text><text fill="#000000" font-family="sans-serif" font-size="14" lengthAdjust="spacing" textLength="75" x="13" y="113.8496">string Name</text><line style="stroke:#181818;stroke-width:0.5;" x1="8" x2="126" y1="121.3633" y2="121.3633"/></g><!--MD5=[7d2c4ae7970c32f414f93e7b18676929]
class Metadata--><g id="elem_Metadata"><rect codeLine="12" fill="#F1F1F1" height="141.1055" id="Metadata" rx="2.5" ry="2.5" style="stroke:#181818;stroke-width:0.5;" width="140" x="201" y="7"/><ellipse cx="238.05" cy="23" fill="#ADD1B2" rx="11" ry="11" style="stroke:#181818;stroke-width:1.0;"/><path d="M241.5656,24.3594 Q241.3469,27.7344 240.2063,28.8594 Q239.2063,29.8594 237.8313,29.8594 Q236.4563,29.8594 235.4563,28.8594 Q233.7219,27.125 233.7219,23.4844 Q233.7219,19.2656 235.5813,17.3906 Q236.5969,16.3906 237.8938,16.3906 Q239.2688,16.3906 240.0813,17.1875 Q241.55,18.6719 241.4875,21.4375 L239.4875,21.4375 Q239.425,19.1563 238.7688,18.5 Q238.4563,18.1719 237.8938,18.1719 Q237.4094,18.1719 237.0188,18.5625 Q235.7688,19.8125 235.7688,23.3594 Q235.7688,26.4375 236.8313,27.4844 Q237.2844,27.9375 237.8313,27.9375 Q238.3156,27.9375 238.7688,27.4844 Q239.3625,26.9063 239.425,24.3594 L241.5656,24.3594 Z " fill="#000000"/><text fill="#000000" font-family="sans-serif" font-size="14" lengthAdjust="spacing" textLength="59" x="256.95" y="28.7969">Metadata</text><line style="stroke:#181818;stroke-width:0.5;" x1="202" x2="340" y1="39" y2="39"/><text fill="#000000" font-family="sans-serif" font-size="14" lengthAdjust="spacing" textLength="42" x="207" y="58.1074">long Id</text><text fill="#000000" font-family="sans-serif" font-size="14" lengthAdjust="spacing" textLength="73" x="207" y="76.7285">string Code</text><text fill="#000000" font-family="sans-serif" font-size="14" lengthAdjust="spacing" textLength="75" x="207" y="95.3496">string Name</text><text fill="#000000" font-family="sans-serif" font-size="14" lengthAdjust="spacing" textLength="128" x="207" y="113.9707">DataType DataType</text><text fill="#000000" font-family="sans-serif" font-size="14" lengthAdjust="spacing" textLength="100" x="207" y="132.5918">int ColumnIndex</text><line style="stroke:#181818;stroke-width:0.5;" x1="202" x2="340" y1="140.1055" y2="140.1055"/></g><!--MD5=[ee92e73e3cf50973671ffd4d82f2a737]
class DataValue--><g id="elem_DataValue"><rect codeLine="20" fill="#F1F1F1" height="103.8633" id="DataValue" rx="2.5" ry="2.5" style="stroke:#181818;stroke-width:0.5;" width="113" x="376.5" y="25.5"/><ellipse cx="398.25" cy="41.5" fill="#ADD1B2" rx="11" ry="11" style="stroke:#181818;stroke-width:1.0;"/><path d="M401.7656,42.8594 Q401.5469,46.2344 400.4063,47.3594 Q399.4063,48.3594 398.0313,48.3594 Q396.6563,48.3594 395.6563,47.3594 Q393.9219,45.625 393.9219,41.9844 Q393.9219,37.7656 395.7813,35.8906 Q396.7969,34.8906 398.0938,34.8906 Q399.4688,34.8906 400.2813,35.6875 Q401.75,37.1719 401.6875,39.9375 L399.6875,39.9375 Q399.625,37.6563 398.9688,37 Q398.6563,36.6719 398.0938,36.6719 Q397.6094,36.6719 397.2188,37.0625 Q395.9688,38.3125 395.9688,41.8594 Q395.9688,44.9375 397.0313,45.9844 Q397.4844,46.4375 398.0313,46.4375 Q398.5156,46.4375 398.9688,45.9844 Q399.5625,45.4063 399.625,42.8594 L401.7656,42.8594 Z " fill="#000000"/><text fill="#000000" font-family="sans-serif" font-size="14" lengthAdjust="spacing" textLength="66" x="413.75" y="47.2969">DataValue</text><line style="stroke:#181818;stroke-width:0.5;" x1="377.5" x2="488.5" y1="57.5" y2="57.5"/><text fill="#000000" font-family="sans-serif" font-size="14" lengthAdjust="spacing" textLength="42" x="382.5" y="76.6074">long Id</text><text fill="#000000" font-family="sans-serif" font-size="14" lengthAdjust="spacing" textLength="101" x="382.5" y="95.2285">long MetadataId</text><text fill="#000000" font-family="sans-serif" font-size="14" lengthAdjust="spacing" textLength="75" x="382.5" y="113.8496">string Value</text><line style="stroke:#181818;stroke-width:0.5;" x1="377.5" x2="488.5" y1="121.3633" y2="121.3633"/></g><!--MD5=[fc52e4e90cc6d767b18483e3e0910290]
class MetadataDataCategory--><g id="elem_MetadataDataCategory"><rect codeLine="26" fill="#F1F1F1" height="103.8633" id="MetadataDataCategory" rx="2.5" ry="2.5" style="stroke:#181818;stroke-width:0.5;" width="179" x="74.5" y="208"/><ellipse cx="89.5" cy="224" fill="#ADD1B2" rx="11" ry="11" style="stroke:#181818;stroke-width:1.0;"/><path d="M93.0156,225.3594 Q92.7969,228.7344 91.6563,229.8594 Q90.6563,230.8594 89.2813,230.8594 Q87.9063,230.8594 86.9063,229.8594 Q85.1719,228.125 85.1719,224.4844 Q85.1719,220.2656 87.0313,218.3906 Q88.0469,217.3906 89.3438,217.3906 Q90.7188,217.3906 91.5313,218.1875 Q93,219.6719 92.9375,222.4375 L90.9375,222.4375 Q90.875,220.1563 90.2188,219.5 Q89.9063,219.1719 89.3438,219.1719 Q88.8594,219.1719 88.4688,219.5625 Q87.2188,220.8125 87.2188,224.3594 Q87.2188,227.4375 88.2813,228.4844 Q88.7344,228.9375 89.2813,228.9375 Q89.7656,228.9375 90.2188,228.4844 Q90.8125,227.9063 90.875,225.3594 L93.0156,225.3594 Z " fill="#000000"/><text fill="#000000" font-family="sans-serif" font-size="14" lengthAdjust="spacing" textLength="147" x="103.5" y="229.7969">MetadataDataCategory</text><line style="stroke:#181818;stroke-width:0.5;" x1="75.5" x2="252.5" y1="240" y2="240"/><text fill="#000000" font-family="sans-serif" font-size="14" lengthAdjust="spacing" textLength="42" x="80.5" y="259.1074">long Id</text><text fill="#000000" font-family="sans-serif" font-size="14" lengthAdjust="spacing" textLength="101" x="80.5" y="277.7285">long MetadataId</text><text fill="#000000" font-family="sans-serif" font-size="14" lengthAdjust="spacing" textLength="130" x="80.5" y="296.3496">long DataCategoryId</text><line style="stroke:#181818;stroke-width:0.5;" x1="75.5" x2="252.5" y1="303.8633" y2="303.8633"/></g><!--MD5=[64fec1ef2a27cc64118819c7a34a9279]
class CandidateListA--><g id="elem_CandidateListA"><rect codeLine="48" fill="#F1F1F1" height="85.2422" id="CandidateListA" rx="2.5" ry="2.5" style="stroke:#181818;stroke-width:0.5;" width="128" x="654" y="35"/><ellipse cx="669" cy="51" fill="#ADD1B2" rx="11" ry="11" style="stroke:#181818;stroke-width:1.0;"/><path d="M672.5156,52.3594 Q672.2969,55.7344 671.1563,56.8594 Q670.1563,57.8594 668.7813,57.8594 Q667.4063,57.8594 666.4063,56.8594 Q664.6719,55.125 664.6719,51.4844 Q664.6719,47.2656 666.5313,45.3906 Q667.5469,44.3906 668.8438,44.3906 Q670.2188,44.3906 671.0313,45.1875 Q672.5,46.6719 672.4375,49.4375 L670.4375,49.4375 Q670.375,47.1563 669.7188,46.5 Q669.4063,46.1719 668.8438,46.1719 Q668.3594,46.1719 667.9688,46.5625 Q666.7188,47.8125 666.7188,51.3594 Q666.7188,54.4375 667.7813,55.4844 Q668.2344,55.9375 668.7813,55.9375 Q669.2656,55.9375 669.7188,55.4844 Q670.3125,54.9063 670.375,52.3594 L672.5156,52.3594 Z " fill="#000000"/><text fill="#000000" font-family="sans-serif" font-size="14" lengthAdjust="spacing" textLength="96" x="683" y="56.7969">CandidateListA</text><line style="stroke:#181818;stroke-width:0.5;" x1="655" x2="781" y1="67" y2="67"/><text fill="#000000" font-family="sans-serif" font-size="14" lengthAdjust="spacing" textLength="42" x="660" y="86.1074">long Id</text><text fill="#000000" font-family="sans-serif" font-size="14" lengthAdjust="spacing" textLength="75" x="660" y="104.7285">string Value</text><line style="stroke:#181818;stroke-width:0.5;" x1="655" x2="781" y1="112.2422" y2="112.2422"/></g><!--MD5=[167164e889717970bbcdd31260011cd7]
class CandidateListB--><g id="elem_CandidateListB"><rect codeLine="49" fill="#F1F1F1" height="85.2422" id="CandidateListB" rx="2.5" ry="2.5" style="stroke:#181818;stroke-width:0.5;" width="128" x="508" y="217.5"/><ellipse cx="523" cy="233.5" fill="#ADD1B2" rx="11" ry="11" style="stroke:#181818;stroke-width:1.0;"/><path d="M526.5156,234.8594 Q526.2969,238.2344 525.1563,239.3594 Q524.1563,240.3594 522.7813,240.3594 Q521.4063,240.3594 520.4063,239.3594 Q518.6719,237.625 518.6719,233.9844 Q518.6719,229.7656 520.5313,227.8906 Q521.5469,226.8906 522.8438,226.8906 Q524.2188,226.8906 525.0313,227.6875 Q526.5,229.1719 526.4375,231.9375 L524.4375,231.9375 Q524.375,229.6563 523.7188,229 Q523.4063,228.6719 522.8438,228.6719 Q522.3594,228.6719 521.9688,229.0625 Q520.7188,230.3125 520.7188,233.8594 Q520.7188,236.9375 521.7813,237.9844 Q522.2344,238.4375 522.7813,238.4375 Q523.2656,238.4375 523.7188,237.9844 Q524.3125,237.4063 524.375,234.8594 L526.5156,234.8594 Z " fill="#000000"/><text fill="#000000" font-family="sans-serif" font-size="14" lengthAdjust="spacing" textLength="96" x="537" y="239.2969">CandidateListB</text><line style="stroke:#181818;stroke-width:0.5;" x1="509" x2="635" y1="249.5" y2="249.5"/><text fill="#000000" font-family="sans-serif" font-size="14" lengthAdjust="spacing" textLength="42" x="514" y="268.6074">long Id</text><text fill="#000000" font-family="sans-serif" font-size="14" lengthAdjust="spacing" textLength="75" x="514" y="287.2285">string Value</text><line style="stroke:#181818;stroke-width:0.5;" x1="509" x2="635" y1="294.7422" y2="294.7422"/></g><!--MD5=[183ae99dade81e3ae3216ea647850228]
class CandidateListC--><g id="elem_CandidateListC"><rect codeLine="50" fill="#F1F1F1" height="85.2422" id="CandidateListC" rx="2.5" ry="2.5" style="stroke:#181818;stroke-width:0.5;" width="129" x="671.5" y="217.5"/><ellipse cx="686.5" cy="233.5" fill="#ADD1B2" rx="11" ry="11" style="stroke:#181818;stroke-width:1.0;"/><path d="M690.0156,234.8594 Q689.7969,238.2344 688.6563,239.3594 Q687.6563,240.3594 686.2813,240.3594 Q684.9063,240.3594 683.9063,239.3594 Q682.1719,237.625 682.1719,233.9844 Q682.1719,229.7656 684.0313,227.8906 Q685.0469,226.8906 686.3438,226.8906 Q687.7188,226.8906 688.5313,227.6875 Q690,229.1719 689.9375,231.9375 L687.9375,231.9375 Q687.875,229.6563 687.2188,229 Q686.9063,228.6719 686.3438,228.6719 Q685.8594,228.6719 685.4688,229.0625 Q684.2188,230.3125 684.2188,233.8594 Q684.2188,236.9375 685.2813,237.9844 Q685.7344,238.4375 686.2813,238.4375 Q686.7656,238.4375 687.2188,237.9844 Q687.8125,237.4063 687.875,234.8594 L690.0156,234.8594 Z " fill="#000000"/><text fill="#000000" font-family="sans-serif" font-size="14" lengthAdjust="spacing" textLength="97" x="700.5" y="239.2969">CandidateListC</text><line style="stroke:#181818;stroke-width:0.5;" x1="672.5" x2="799.5" y1="249.5" y2="249.5"/><text fill="#000000" font-family="sans-serif" font-size="14" lengthAdjust="spacing" textLength="42" x="677.5" y="268.6074">long Id</text><text fill="#000000" font-family="sans-serif" font-size="14" lengthAdjust="spacing" textLength="75" x="677.5" y="287.2285">string Value</text><line style="stroke:#181818;stroke-width:0.5;" x1="672.5" x2="799.5" y1="294.7422" y2="294.7422"/></g><ellipse cx="164" cy="77.5" fill="#181818" rx="2" ry="2" style="stroke:#181818;stroke-width:1.0;"/><!--MD5=[cb0848cef247007d1a322d16eeef639c]
link Metadata to DataValue--><g id="link_Metadata_DataValue"><path codeLine="53" d="M341.24,77.5 C352.95,77.5 364.66,77.5 376.37,77.5 " fill="none" id="Metadata-DataValue" style="stroke:#181818;stroke-width:1.0;"/><text fill="#000000" font-family="sans-serif" font-size="13" lengthAdjust="spacing" textLength="7" x="348.8444" y="73.6613">1</text><text fill="#000000" font-family="sans-serif" font-size="13" lengthAdjust="spacing" textLength="5" x="363.4244" y="73.4149">*</text></g><!--MD5=[b963da22dddd63c6d8d5cfee1a8f09b2]
link DataCategory to apoint14--><g id="link_DataCategory_apoint14"><path d="M127.25,77.5 C138.83,77.5 150.41,77.5 161.99,77.5 " fill="none" id="DataCategory-apoint14" style="stroke:#181818;stroke-width:1.0;"/><text fill="#000000" font-family="sans-serif" font-size="13" lengthAdjust="spacing" textLength="5" x="134.8977" y="73.5184">*</text></g><!--MD5=[d1c66deb17e1e0b961d6846aee8006eb]
link apoint14 to Metadata--><g id="link_apoint14_Metadata"><path d="M166.09,77.5 C177.7,77.5 189.31,77.5 200.92,77.5 " fill="none" id="apoint14-Metadata" style="stroke:#181818;stroke-width:1.0;"/><text fill="#000000" font-family="sans-serif" font-size="13" lengthAdjust="spacing" textLength="5" x="187.9816" y="73.6088">*</text></g><!--MD5=[38ac411f2367f17f449c0c59553e7ffd]
link apoint14 to MetadataDataCategory--><g id="link_apoint14_MetadataDataCategory"><path d="M164,79.65 C164,89.35 164,158.19 164,207.69 " fill="none" id="apoint14-MetadataDataCategory" style="stroke:#181818;stroke-width:1.0;"/></g><!--MD5=[207fb36cd51019c237e943cb6354abed]
@startuml DataModel
class Mapping {
long Id
string CodeA
string CodeB
}
class DataCategory
{
long Id
string Code
string Name
}
class Metadata
{
long Id
string Code
string Name
DataType DataType
int ColumnIndex
}
class DataValue
{
long Id
long MetadataId
string Value
}
class MetadataDataCategory
{
long Id
long MetadataId
long DataCategoryId
}
class CandidateListA
{
long Id
string Value
}
class CandidateListB
{
long Id
string Value
}
class CandidateListC
{
long Id
string Value
}
together {
    class CandidateListA
    class CandidateListB
    class CandidateListC
    class Mapping
}
Metadata "1" - "*" DataValue
DataCategory "*" - "*" Metadata
(DataCategory, Metadata) - MetadataDataCategory
@enduml

PlantUML version 1.2022.13(Sat Nov 19 22:22:17 JST 2022)
(GPL source distribution)
Java Runtime: OpenJDK Runtime Environment
JVM: OpenJDK 64-Bit Server VM
Default Encoding: MS932
Language: en
Country: US
--></g></svg>